<svg id="Livello_1" data-name="Livello 1" xmlns="http://www.w3.org/2000/svg" viewBox="0 0 50.84 50.47"><defs><style>.cls-1{fill:#343434;}</style></defs><title>alcholicicon</title><path class="cls-1" d="M322.33,397.94l-.05,0a.53.53,0,0,0-.06-.1c-1.51-1.57-5.69-1.33-7.64-1.47-5.67-.4-11.38-.46-17.07-.41s-11.24.18-16.83.66c-1.92.17-6.54,0-7.94,1.67-.64.76-.46,2-.44,2.95.05,2.53.34,5.06.61,7.57.78,7.48,1.81,14.93,2.87,22.37q.74,5.17,1.52,10.36c.52,3.53,1.49,3.87,4.94,4.22a144.77,144.77,0,0,0,17.42.63c2.69-.05,5.38-.15,8.06-.28,2.39-.12,5.79.3,8-.51,3.3-1.18,3.5-7.58,4-10.5,1-5.92,1.36-11.93,2-17.9.39-3.86.87-7.69,1.06-11.57C322.89,403.62,323.66,399.68,322.33,397.94Zm-.94,7.65q-.19,3.81-.62,7.6c-.49,4.4-.86,8.81-1.3,13.22-.48,4.78-.67,10.8-2.62,15.28-1.36,3.13-3.38,2.67-6.45,2.84q-3.69.21-7.38.33c-4.93.16-9.86.18-14.79-.08-2.22-.11-4.44-.26-6.65-.52-2.62-.32-2.66-1.32-3-3.5q-.69-4.54-1.33-9.1c-1-6.83-1.92-13.67-2.7-20.53-.26-2.37-.52-4.74-.7-7.11-.07-.92-.68-3.82-.12-4.67.95-1.44,5.88-1.28,7.48-1.41,4.58-.38,9.18-.52,13.77-.59,5.49-.09,11-.06,16.48.2,2.14.1,4.3.22,6.43.48.76.1,2.63.12,3.29.73C322.13,400.22,321.47,404.07,321.39,405.59Z" transform="translate(-272.26 -395.9)"/><path class="cls-1" d="M294.91,415c-3.24-3.52-8.92-1.89-12,1.15-1.58,1.72-2.66,3.32-2.24,5.72.33,1.9,1.48,5.18,2.91,6.51s4.77,1.15,6.55,1.06c2.4-.11,3.66-1.57,5.06-3.42,1.09-1.44,2.85-3.48,2.79-5.41S296.21,416.45,294.91,415Zm-2.84-.16c-.75,1-1.47,2-2.23,3-.62.8-1.39,1.48-2,2.27a6.49,6.49,0,0,0-1.58,0c-1.26.09-2.52.13-3.78.27a6.22,6.22,0,0,1,1.49-3.23C285.94,415.18,289.34,413.9,292.07,414.88Zm-5.26,13c-2.86-.55-4.39-3.29-4.46-6.06,1.65-.2,4.87-.95,5.94.44s1.64,3.55,2.71,5.13a.5.5,0,0,0,.12.13A7.21,7.21,0,0,1,286.81,427.87Zm8.12-3.78a10.29,10.29,0,0,1-2.64,2.79.7.7,0,0,0-.08-.2c-1.2-1.79-1.74-4.06-3.09-5.73l-.1-.11c.63-.79,1.42-1.49,2.05-2.31.76-1,1.49-2,2.25-3a5.57,5.57,0,0,1,.61.5c.88.86,2.44,3,2.63,4.25S295.63,423.05,294.93,424.09Z" transform="translate(-272.26 -395.9)"/><path class="cls-1" d="M311,422.16c-3.35-1.72-9.11-1.81-11.31,1.83-1.11,1.83-2.36,4.93-1.87,7.1.41,1.81,2.45,3.11,3.86,4.15,1.9,1.4,3.7,2.61,6.1,1.91,1.64-.49,4.74-1.36,5.83-2.78s1.4-6.17,1.06-8C314.21,424.27,312.73,423.17,311,422.16Zm-.71,1.21a5.44,5.44,0,0,1,2.53,2.59h0c-1.33.27-2.62.68-3.93,1a13,13,0,0,0-1.64.36c-.83-.54-1.74-.95-2.55-1.52s-1.83-1.33-2.75-2C304.16,422.05,307.72,422.07,310.24,423.37Zm-11.15,7.07c-.2-1.3.73-3.8,1.32-4.9a6.2,6.2,0,0,1,.49-.73.65.65,0,0,0,.08.09c1,.69,1.95,1.42,2.94,2.12.75.52,1.58.91,2.35,1.38a28.23,28.23,0,0,0-.5,2.94,29.32,29.32,0,0,1-.75,3.73.6.6,0,0,0,0,.42,7.49,7.49,0,0,1-2.32-1.18C301.56,433.48,299.34,432,299.09,430.44Zm13.47,2.69c-.67,1.07-3.18,2-4.41,2.36a6.19,6.19,0,0,1-1.92.2.68.68,0,0,0,.14-.25,36.59,36.59,0,0,0,1.27-6.21c.09-.73-.09-.45.52-.68.42-.15.94-.2,1.38-.32,1.19-.31,2.37-.67,3.58-.92l0,0a7.86,7.86,0,0,1,.13,1.23C313.32,429.67,313.22,432.1,312.56,433.13Z" transform="translate(-272.26 -395.9)"/><path class="cls-1" d="M277.28,408.12c-.19-1.1-.39-2.21-.58-3.31-.25-1.38-.76-3.28,1.29-3.2.9,0,.9-1.36,0-1.4-4.6-.19-2.52,5.67-2.06,8.28C276.09,409.38,277.44,409,277.28,408.12Z" transform="translate(-272.26 -395.9)"/><path class="cls-1" d="M280.6,401.43a.7.7,0,0,0,0-1.4A.7.7,0,0,0,280.6,401.43Z" transform="translate(-272.26 -395.9)"/><path class="cls-1" d="M314.68,410.86a40.65,40.65,0,0,1-12.36.31c-4.38-.68-8.74-1.94-13.19-2.06a56.11,56.11,0,0,0-8,.48c-1.25.15-3.26.05-4.2,1-1.11,1.09-.54,2.69-.38,4,.34,2.81.53,5.63.83,8.43.6,5.54,1.87,11,2.88,16.46a.56.56,0,0,0,.6.5l.07,0c11.43.54,23,.49,34.39.14a.72.72,0,0,0,.68-.51c1.45-8.08,2.22-16.44,3.07-24.61C319.5,410.9,318.81,410.29,314.68,410.86Zm3,4.14c-.37,3.61-.91,7.21-1.33,10.83-.32,2.76-.59,5.53-.92,8.3-.09.71-.28,4.36-.72,4.6a7.62,7.62,0,0,1-2.52,0c-10.24-.06-20.42.33-30.65-.12-1.26-6.82-2.54-13.52-3.2-20.44-.12-1.32-.78-3.46-.51-4.74.56-2.65,2.38-2.34,4.44-2.55a43.12,43.12,0,0,1,8.65-.23c5,.49,9.78,2,14.76,2.34a28.81,28.81,0,0,0,6.43-.28,25.63,25.63,0,0,1,3.44-.55C317.77,412.14,317.87,413.11,317.67,415Z" transform="translate(-272.26 -395.9)"/></svg>