<svg id="Livello_1" data-name="Livello 1" xmlns="http://www.w3.org/2000/svg" viewBox="0 0 41.5 52.7"><defs><style>.cls-1{fill:none;stroke-width:1.5px;}.cls-1,.cls-3{stroke:#343434;stroke-miterlimit:10;}.cls-2,.cls-3{fill:#343434;}.cls-3{stroke-width:0.25px;}</style></defs><title>toasticon</title><path class="cls-1" d="M279.38,408.78v33.85s-1.11,4.69,5.86,4.69H309s5.86.61,5.86-4.69V408.78s4.52-4.81,1.71-9.43c-2.64-4.34-8.24-3-8.24-3l-5.27.17-11.25-.12-7-.12s-5.1-.08-6.68,3.74S278.43,407.41,279.38,408.78Z" transform="translate(-276.75 -395.39)"/><path class="cls-1" d="M304.65,398.92" transform="translate(-276.75 -395.39)"/><path class="cls-2" d="M306.79,399.22c-5.81,0-11.62-.13-17.43,0a.7.7,0,0,0,0,1.4c5.81-.13,11.62,0,17.43,0a.7.7,0,0,0,0-1.4Z" transform="translate(-276.75 -395.39)"/><ellipse class="cls-3" cx="9.75" cy="4.58" rx="0.72" ry="0.76"/></svg>