<svg id="Livello_1" data-name="Livello 1" xmlns="http://www.w3.org/2000/svg" viewBox="0 0 45.16 58.83"><defs><style>.cls-1{fill:#343434;}</style></defs><title>beericon</title><path class="cls-1" d="M318.05,412.05c-3.38-3.95-6.93-3.72-10.92-1.62a10.49,10.49,0,0,0-.24-2.51,3.58,3.58,0,0,0-.73-1.46c4.29-3.44.36-11-4.83-9.27a6,6,0,0,0-4.37-3.4c-2.33-.41-4,.77-5.63,2.16-3.45-5.08-12.77-1.66-12.48,4.37-3,0-4.19,3.1-2,5a2.64,2.64,0,0,0-1.07,1.85v0a.7.7,0,0,0,0,.14c.09,13.33-.24,26.68.27,40,0,1.07-.15,2.43.72,3.25,1.35,1.28,4.61,1.09,6.36,1.28a85.92,85.92,0,0,0,19.76-.22c4.41-.57,3.41-3.07,3.52-7.15,0-.21,0-.42,0-.63a9.26,9.26,0,0,0,8.43.18c5-2.95,5.49-10,5.8-15.18C321,423.87,321.55,416.14,318.05,412.05Zm-40.89-4.64c.64-2.51,12.17-1.38,14.46-1.37,3.52,0,8.86-.86,12.15.53,2.11.89,2,3.58,1.81,5.94a109.63,109.63,0,0,0-16.51-.42c-3.95.19-8-.35-11.89.08C277.17,410.59,277.17,409,277.16,407.41Zm29.7,12.13a.65.65,0,0,0,.45-.1c1.84-1.22,4.93-1,5.73,1.17a17.32,17.32,0,0,1,.47,4.95,41.52,41.52,0,0,1-.58,6.15c-.25,1.75-.46,3.92-2.43,4.48a5.4,5.4,0,0,1-3.85-.4c.11-3.64.2-7.28.22-10.92C306.88,423.09,306.87,421.31,306.86,419.54Zm-27.4-17.79a.71.71,0,0,0,.86-.86c-1.14-5.38,7.8-8.4,10.23-3.52a.7.7,0,0,0,1.09.14c1.19-1,2.53-2.35,4.2-2.43s4.06,1.41,4.34,3.25a.7.7,0,0,0,1,.41c4.33-2.23,7.14,4.37,3.78,6.81a10.71,10.71,0,0,0-3.94-.75c-5.18-.36-10.44-.18-15.63-.12-1.72,0-4.76-.57-7-.09C277.47,403.76,277.38,401.34,279.46,401.75ZM304,450.05c-.87.69-4.65.55-5.92.64-1.59.12-3.19.19-4.78.21a84.53,84.53,0,0,1-9.55-.39c-1.57-.16-3.93.1-5.23-.69-1.66-1-1.14-2.95-1.18-4.59-.26-10.55-.19-21.11-.2-31.67,4.32-.55,8.88.06,13.23-.14a103.72,103.72,0,0,1,15.06.48c0,.25,0,.49,0,.72,0,3,0,6,0,8.95,0,6.06-.23,12.12-.4,18.18C305,443.89,305.86,448.62,304,450.05Zm15.27-22.51c-.16,4.08-.32,8.95-2.51,12.52-2,3.21-7.16,4.87-10.34,2.14l.15-4.9c1.91.74,4.67.72,6.21-.6a5,5,0,0,0,1.38-3,47.19,47.19,0,0,0,.74-7.52c0-2.06.21-6.21-1.4-7.77s-4.86-1.33-6.69-.28c0-.74,0-1.48,0-2.22,0-1.13.15-2.48.23-3.82,2.12-1.24,4.21-2.41,6.69-1.47a8,8,0,0,1,4.38,4.47C319.62,418.73,319.46,423.63,319.31,427.54Z" transform="translate(-275.72 -393.48)"/><path class="cls-1" d="M290.92,416.29c-1.93.75-1.79,4.69-1.91,6.23-.32,3.75-.56,7.52-.59,11.28,0,1.74-.87,14.58,3.4,12.91,1.63-.64,1.3-3.31,1.37-4.65.22-4.42.45-8.84.64-13.27C293.88,427.37,294.83,414.78,290.92,416.29Zm1.48,13.13c-.2,4.49.16,9.54-.68,13.95a1.53,1.53,0,0,1-.43,1.41c-.32.84-.54.77-.63-.21-.59-.9-.59-3.15-.67-4-.2-2.24-.17-4.5-.17-6.75,0-4.1.26-8.23.67-12.31.1-.88-.21-3.34,1.35-3,.5.11.59,3,.63,3.54A58.47,58.47,0,0,1,292.4,429.42Z" transform="translate(-275.72 -393.48)"/><path class="cls-1" d="M282.46,416.29c-1.93.75-1.79,4.69-1.92,6.23-.31,3.75-.56,7.52-.58,11.28,0,1.74-.88,14.58,3.4,12.91,1.63-.64,1.29-3.31,1.36-4.65.23-4.42.46-8.84.64-13.27C285.42,427.37,286.36,414.78,282.46,416.29Zm1.47,13.13c-.2,4.49.16,9.54-.67,13.95a1.55,1.55,0,0,1-.43,1.41c-.33.84-.54.77-.64-.21-.59-.9-.58-3.15-.66-4-.2-2.24-.17-4.5-.17-6.75,0-4.1.25-8.23.67-12.31.09-.88-.21-3.34,1.35-3,.5.11.59,3,.63,3.54A58.47,58.47,0,0,1,283.93,429.42Z" transform="translate(-275.72 -393.48)"/><path class="cls-1" d="M299.39,416.81c-1.93.74-1.79,4.69-1.92,6.22-.32,3.75-.56,7.52-.58,11.28,0,1.74-.88,14.59,3.4,12.91,1.63-.63,1.29-3.31,1.36-4.65.23-4.42.46-8.84.64-13.26C302.35,427.88,303.29,415.29,299.39,416.81Zm1.47,13.13c-.2,4.49.16,9.53-.67,13.94a1.55,1.55,0,0,1-.43,1.41c-.33.84-.54.77-.64-.21-.59-.9-.59-3.15-.66-4-.2-2.24-.17-4.5-.17-6.75,0-4.1.25-8.23.67-12.31.09-.88-.21-3.34,1.35-3,.49.11.58,3,.63,3.54A58.63,58.63,0,0,1,300.86,429.94Z" transform="translate(-275.72 -393.48)"/><path class="cls-1" d="M312.77,411.81a.7.7,0,0,0-.37,1.35c2.24.65,3,2.69,3.42,4.77.17.88,1.52.51,1.35-.38C316.68,415,315.5,412.61,312.77,411.81Z" transform="translate(-275.72 -393.48)"/><path class="cls-1" d="M310,411.86a.7.7,0,0,0,0,1.4A.7.7,0,0,0,310,411.86Z" transform="translate(-275.72 -393.48)"/></svg>