<svg id="Livello_1" data-name="Livello 1" xmlns="http://www.w3.org/2000/svg" viewBox="0 0 35.57 58.75"><defs><style>.cls-1{fill:#343434;}</style></defs><title>beverageicon</title><path class="cls-1" d="M315,403a11,11,0,0,0,0-2.63c-.07-.21-.13-.39-.21-.59s-.8-.64-1-.86a8.89,8.89,0,0,1-1.89-2.91,2.4,2.4,0,0,0,1.71-.94c1.5-2.45-2-3.15-3.56-3.24-4.5-.23-9-.24-13.52-.15-3.91-.13-7.85-.07-11.75.15-1.58.09-4.36.2-3.93,2.64a1.84,1.84,0,0,0,1.63,1.56,11.87,11.87,0,0,1-2.19,3.38c-.28.39-.49.45-.65.89a8.62,8.62,0,0,0,0,2.27q0,6.54,0,13.08,0,8.52.08,17.06c0,2.68.05,5.36.11,8.05.07,2.51,2,3.09,3,5.19a2.5,2.5,0,0,0-1.76.95c-1.5,2.45,2,3.16,3.57,3.24,4.49.23,9,.24,13.52.15,3.9.13,7.84.08,11.74-.14,1.58-.09,4.36-.2,3.93-2.64a1.92,1.92,0,0,0-1.92-1.62,7.1,7.1,0,0,1,1.94-2.53,4.28,4.28,0,0,0,1-.86,5.72,5.72,0,0,0,.13-2.11q.07-3.84.1-7.68.06-8.54,0-17.06Q315,409.31,315,403Zm-33.92,30.13c-.06-5.83-.08-11.65-.09-17.48v-5.23a70.93,70.93,0,0,1,7.85-.1,13.35,13.35,0,0,0-4.41,8.89c-.45,4.77,1,10.33,4.45,13.77C286.29,433.12,283.69,433.07,281.09,433.12Zm4.82-14.36c.91-7.08,7.23-11.41,14.24-9.93,6.59,1.4,8.91,7.34,8.75,13.49-.51,6.87-5.61,13.14-13,12.51C288.17,434.17,285.06,425.37,285.91,418.76Zm24.39,3.56c.12-4.6-1.17-9-4.11-11.85a73.92,73.92,0,0,0,7.45-.15c0,1.78,0,3.55,0,5.32q0,8.52,0,17.06v.09c-2.71,0-5.41,0-8.11,0A16.11,16.11,0,0,0,310.3,422.32Zm-22.15-29.23c2.78-.07,5.57-.11,8.35,0,3-.06,6-.05,9,0,1.33,0,3.28-.29,4.55.14.84.29,1.51.82.66,1.33-.18.11-.83,0-1.05,0-5.21-.05-10.42,0-15.63.1l-7.24.08c-.58,0-3.6.43-4,0C281.06,393,287.44,393.11,288.15,393.09Zm-5.6,6.05a8,8,0,0,0,1.34-3h.52c3.33,0,6.66-.05,10-.08,4-.05,8-.1,12-.11.88,0,2.49.22,4,.2a10.48,10.48,0,0,0,1.68,3s.58.56,1,.93c-5.75.4-11.51.3-17.27.5-.9,0-.9,1.43,0,1.4,5.94-.21,11.89-.09,17.83-.54,0,.42-.08.85-.08,1.14,0,2.12,0,4.24,0,6.36a89.28,89.28,0,0,1-9.11.12l-.11,0a12.4,12.4,0,0,0-5.15-1.78,13.34,13.34,0,0,0-8.61,1.71,72.27,72.27,0,0,0-9.65,0v-6.25c0-.21,0-.51-.06-.83a72.94,72.94,0,0,1,8.1-.06.7.7,0,0,0,0-1.4,73.14,73.14,0,0,0-8.11.06,1.35,1.35,0,0,1,.08-.24A12.2,12.2,0,0,0,282.55,399.14Zm-1,42.61a44.17,44.17,0,0,0,5.86.42.7.7,0,0,0,0-1.4,46.84,46.84,0,0,1-6.26-.46,41.33,41.33,0,0,1-.07-5.79c3.09-.06,6.18,0,9.25-.24l.06,0a10.57,10.57,0,0,0,5.49,2,12.4,12.4,0,0,0,8.06-2.15.7.7,0,0,0,.37.11c3.12-.06,6.24.05,9.36,0a33.24,33.24,0,0,1-.09,6.32c-6.91.31-13.87.87-20.79.56-.9,0-.9,1.36,0,1.4,6.74.3,13.53-.22,20.27-.54-.77,1.28-2.15,2.32-2.67,3.9h-.2c-3.33,0-6.66.05-10,.09-4,0-8,.09-12,.1-.88,0-2.46-.22-3.94-.2C283.61,444.24,282.21,443.15,281.54,441.75Zm24.9,7.11c-2.78.08-5.56.11-8.34,0-3,.06-6,.05-9,0-1.32,0-3.28.29-4.54-.14-.84-.29-1.52-.82-.67-1.33.18-.11.83,0,1,0,5.21,0,10.43,0,15.64-.1,2.41,0,4.82-.06,7.23-.07.58,0,3.6-.43,4,0C313.53,448.93,307.15,448.84,306.44,448.86Z" transform="translate(-279.52 -391.6)"/></svg>