<svg id="Livello_1" data-name="Livello 1" xmlns="http://www.w3.org/2000/svg" viewBox="0 0 50.95 50.46"><defs><style>.cls-1{fill:#343434;}</style></defs><title>cocktailicon</title><path class="cls-1" d="M322.06,399.77c-3.33-.06-6.65-.09-10-.1.66-.85,1.33-1.68,2-2.54s-.68-1.42-1.21-.71c-.82,1.09-1.67,2.17-2.52,3.24-12.59-.05-25.2.13-37.77.11a.66.66,0,0,0-.28.05.63.63,0,0,0-.45.51.66.66,0,0,0,.1.54l.05.09h0c4.48,4.83,9.17,9.26,13.9,13.81,2,1.93,4,3.93,6,5.9.82.81,2.06,2.54,3.36,3.67.1,4.87.09,9.73,0,14.6-2.25,0-12.58,0-12,4.18.44,3.28,9.34,3.26,11.58,3.39a48.69,48.69,0,0,0,10.65-.63c1.43-.24,5.38-.91,5.84-2.73,1-4.06-9.49-4.26-12-4.3.08-4.8.09-9.59,0-14.39.48-.42.91-.88,1.27-1.2,2.53-2.26,4.93-4.67,7.28-7.11,4.9-5.08,9.6-10.35,14.74-15.19A.71.71,0,0,0,322.06,399.77Zm-48,1.4c11.69,0,23.4-.15,35.1-.12-1.16,1.44-2.33,2.87-3.49,4.3-9.26,0-18.53-.66-27.79-.15Q276,403.21,274.1,401.17Zm23.74,40.75c0,.9,1.37.9,1.4,0,0-.56,0-1.11,0-1.66a34.23,34.23,0,0,1,7,.73c.59.14,2.34.38,2.72.9,1.11,1.55-1.13,2-2,2.28-3.77,1.14-8.25,1.16-12.16.95-2.49-.14-6.59,0-8.82-1.36s.81-2.37,2.29-2.72a33.1,33.1,0,0,1,6.95-.69c0,.52,0,1,0,1.57a.7.7,0,0,0,1.4,0q.19-8.34,0-16.66a1.89,1.89,0,0,0,.6.15,1.67,1.67,0,0,0,.66-.09Q298,433.62,297.84,441.92ZM303,419.06c-.85.82-1.71,1.64-2.58,2.44-1.69,1.55-2.77,2.29-4.88.89-1.79-1.2-3.48-3.42-5-4.94s-3.25-3.38-5-4.94c-2.17-1.92-4.24-3.92-6.26-6,8.45-.37,16.91.14,25.36.21-.76.95-1.49,1.91-2.23,2.88a4.75,4.75,0,0,0-6.09,2.16,4.14,4.14,0,0,0,1.21,4.8c-.61.88-1.32,1.69-1.91,2.59-.5.75.71,1.45,1.21.7s1.25-1.65,1.85-2.5l.24.12a4.68,4.68,0,0,0,5.53-1.78,3.93,3.93,0,0,0-.82-5.4q1.37-1.8,2.78-3.56c2.9,0,5.79-.07,8.68-.24-2,2.13-4,4.29-6.07,6.42S305,417.07,303,419.06Zm-3.78-2.94c-1.17-.61-2.29-2.13-1.81-3.46a3.37,3.37,0,0,1,4.08-1.88l-.21.27c-.53.73.68,1.43,1.21.7l.27-.35C305.38,412.94,302.23,417.69,299.21,416.12ZM316.48,405c-3,.22-6,.31-9,.32,1.17-1.43,2.33-2.85,3.49-4.29q4.69,0,9.38.09C319.05,402.42,317.76,403.72,316.48,405Z" transform="translate(-271.81 -396.12)"/><path class="cls-1" d="M284.93,408.32c-.66-.62-1.65.37-1,1a36.83,36.83,0,0,1,3.12,3.37c.57.7,1.56-.3,1-1A36.83,36.83,0,0,0,284.93,408.32Z" transform="translate(-271.81 -396.12)"/><path class="cls-1" d="M289.15,413a.7.7,0,0,0,0,1.4A.7.7,0,0,0,289.15,413Z" transform="translate(-271.81 -396.12)"/></svg>