<svg id="Layer_5" enable-background="new 0 0 64 64" height="512" viewBox="0 0 64 64" width="512" xmlns="http://www.w3.org/2000/svg"><g><path d="m33 37c-2.206 0-4 1.794-4 4s1.794 4 4 4c.749 0 1.443-.22 2.043-.579.213 2.006 1.895 3.579 3.957 3.579.749 0 1.443-.22 2.043-.579.213 2.006 1.895 3.579 3.957 3.579 2.206 0 4-1.794 4-4 0-1.201-.542-2.266-1.382-3 .84-.734 1.382-1.799 1.382-3s-.542-2.266-1.382-3c.84-.734 1.382-1.799 1.382-3 0-2.206-1.794-4-4-4-2.062 0-3.744 1.573-3.957 3.579-.6-.359-1.294-.579-2.043-.579-2.062 0-3.744 1.573-3.957 3.579-.6-.359-1.294-.579-2.043-.579zm0 6c-1.103 0-2-.897-2-2s.897-2 2-2 2 .897 2 2-.897 2-2 2zm6 3c-1.103 0-2-.897-2-2s.897-2 2-2 2 .897 2 2-.897 2-2 2zm8 1c0 1.103-.897 2-2 2s-2-.897-2-2 .897-2 2-2 2 .897 2 2zm0-6c0 1.103-.897 2-2 2s-2-.897-2-2 .897-2 2-2 2 .897 2 2zm-2-8c1.103 0 2 .897 2 2s-.897 2-2 2-2-.897-2-2 .897-2 2-2zm-6 3c1.103 0 2 .897 2 2s-.897 2-2 2-2-.897-2-2 .897-2 2-2z"/><path d="m37.807 23 16.028-15.452c.741-.714 1.165-1.713 1.165-2.741 0-2.099-1.708-3.807-3.807-3.807-1.028 0-2.027.425-2.741 1.164l-20.086 20.836h-27.366v40h62v-40zm12.085-19.447c.338-.352.813-.553 1.301-.553.996 0 1.807.811 1.807 1.807 0 .488-.202.963-.553 1.302l-31.74 30.599c-.384.383-1.03.383-1.414 0-.191-.192-.293-.437-.293-.708s.102-.516.306-.72zm7.108 29.346c-1.956-.399-3.5-1.943-3.899-3.899h3.899zm-5.92-3.899c.441 3.059 2.861 5.479 5.92 5.92v12.16c-3.059.441-5.479 2.861-5.92 5.92h-38.16c-.441-3.059-2.861-5.479-5.92-5.92v-12.16c3.059-.441 5.479-2.861 5.92-5.92h9.662l-4.703 4.879c-.567.566-.879 1.32-.879 2.121 0 .034.009.066.01.1-2.284.461-4.01 2.482-4.01 4.9 0 2.757 2.243 5 5 5s5-2.243 5-5c0-1.031-.328-2.017-.915-2.847.007-.007.016-.012.023-.019l9.475-9.134zm5.92 20.101v3.899h-3.899c.399-1.956 1.943-3.5 3.899-3.899zm-50 0c1.956.399 3.5 1.943 3.899 3.899h-3.899zm0-16.202v-3.899h3.899c-.399 1.956-1.943 3.5-3.899 3.899zm13 6.101c.059 0 .115-.014.174-.017.52.555.826 1.264.826 2.017 0 1.654-1.346 3-3 3s-3-1.346-3-3c0-1.575 1.225-2.857 2.802-2.972.028.03.048.064.077.093.566.567 1.32.879 2.121.879zm6.438-14-1.928 2h-19.51v28h54v-28h-25.343l2.075-2h25.268v32h-58v-32zm-23.438 36v-2h58v2z"/></g></svg>